<svg width="544.000000" height="544.000000" viewBox="0 0 544 544" fill="none" xmlns="http://www.w3.org/2000/svg" xmlns:xlink="http://www.w3.org/1999/xlink">
	<desc>
			Created with Pixso.
	</desc>
	<defs/>
	<rect id="Прямоугольник 196" rx="30.000000" width="544.000000" height="544.000000" fill="#FFFFFF" fill-opacity="1.000000"/>
	<path id="Форма 1" d="M272 72C269.23 72 267 74.23 267 77L267 267L77 267C74.23 267 72 269.23 72 272C72 274.76 74.23 277 77 277L267 277L267 467C267 469.76 269.23 472 272 472C274.76 472 277 469.76 277 467L277 277L467 277C469.76 277 472 274.76 472 272C472 269.23 469.76 267 467 267L277 267L277 77C277 74.23 274.76 72 272 72Z" fill="#000000" fill-opacity="1.000000" fill-rule="evenodd"/>
</svg>
