<svg width="25" height="25" viewBox="0 0 25 25" fill="none" xmlns="http://www.w3.org/2000/svg"><defs><clipPath id="clip138_459"><path id="svg" fill="#fff" fill-opacity="0" d="M0 0h25v25H0z"/></clipPath></defs><g clip-path="url(#clip138_459)" fill="red" fill-opacity="1" fill-rule="nonzero"><path id="path" d="M11.9.01a12.4 12.4 0 0 0-8.24 3.65 12.45 12.45 0 0 0 0 17.67 12.45 12.45 0 0 0 17.67 0 12.45 12.45 0 0 0 0-17.67A12.5 12.5 0 0 0 11.9.01m1.57 1.49a11.06 11.06 0 0 1 8.49 16.67 11 11 0 0 1-11.44 5.18A11.03 11.03 0 0 1 11.55 1.5l.33-.03a29 29 0 0 1 1.59.03"/><path id="path" d="M15.57 2.61c-.19.02-.43.13-.58.25-.21.18-.3.34-.43.75l-.25.75a62 62 0 0 1-.76 2.32c-.01.03-.02-.25-.01-.73 0-.7 0-.78-.04-.9q-.12-.4-.47-.65a1.1 1.1 0 0 0-1.11-.08c-.31.14-.56.46-.63.79-.02.1-.03.74-.04 3.39l-.02 3.26-.05.07a1.8 1.8 0 0 0-.23 1.46c.1.32.35.68.62.9.17.14.48.3.66.35a1.82 1.82 0 0 0 2.22-1.55 2 2 0 0 0-.17-.97l-.04-.11.77-2.35.61-1.87.31-.94c.97-2.97.92-2.8.92-3.01 0-.18-.03-.31-.12-.5-.21-.43-.69-.7-1.16-.63"/></g></svg>