<svg viewBox="0 0 512 512" id="pay" xmlns="http://www.w3.org/2000/svg" fill="#ffffff">
  <path
    d="M228.259 453.47l2.04-18.38H90.209a10.003 10.003 0 01-10-10V88.15a10.003 10.003 0 0110-10h211.14a10.004 10.004 0 0110 10v158.47a55.795 55.795 0 0115.24-9.14V60.61a32.7 32.7 0 00-32.7-32.7H97.669a32.7 32.7 0 00-32.7 32.7v392.56a32.7 32.7 0 0032.7 32.7h139.5a45.438 45.438 0 01-8.91-32.4zm-9.6 12.18h-45.76v-12h45.76z"
    fill="#ffffff">
  </path>
  <path d="M156.859 166.84a23.899 23.899 0 11-23.82-25.82v-11a34.895 34.895 0 1034.84 36.82z" fill="#ffffff"></path>
  <path
    d="M123.382 153.458l-8.858 8.096 13.188 14.428a6.002 6.002 0 004.39 1.952h.039a6.002 6.002 0 004.376-1.894l27.995-29.84-8.752-8.21-23.562 25.113zm33.477 108.465a23.899 23.899 0 11-23.82-25.82v-11a34.895 34.895 0 1034.84 36.82z"
    fill="#ffffff">
  </path>
  <path
    d="M123.382 248.541l-8.858 8.096 13.188 14.428a6.002 6.002 0 004.39 1.952h.039a6.002 6.002 0 004.376-1.895l27.995-29.84-8.752-8.21-23.562 25.114zM98.139 355.09a34.897 34.897 0 0069.74 1.92h-11.02a23.899 23.899 0 11-23.82-25.82v-11a34.938 34.938 0 00-34.9 34.9z"
    fill="#ffffff">
  </path>
  <path
    d="M123.382 343.628l-8.858 8.096 13.188 14.427a6.001 6.001 0 004.39 1.953h.039a6.002 6.002 0 004.376-1.895l27.995-29.839-8.752-8.21-23.562 25.113zm69.423-196.759h72.685v12h-72.685zm0 24.093h50.599v12h-50.599zm0 69.007h50.599v12h-50.599zm0 24.093h72.333v12h-72.333z"
    fill="#ffffff">
  </path>
  <path
    d="M453.917 454.3l-14.11-126.859a20.488 20.488 0 00-20.383-18.241H391.39v-19.35a44.365 44.365 0 00-43.543-44.306c-24.792-.425-45.084 20.296-45.084 45.092V309.2H274.73a20.488 20.488 0 00-20.384 18.242l-14.164 127.35a33.382 33.382 0 0033.177 37.074h146.94a33.825 33.825 0 0033.619-37.565zM314.763 289.85a32.351 32.351 0 0131.756-32.308c18.076-.308 32.87 14.873 32.87 32.952V309.2h-64.626zm121.8 182.745a21.854 21.854 0 01-16.264 7.27h-146.94a21.383 21.383 0 01-21.252-23.746l14.164-127.35a8.502 8.502 0 018.458-7.57h28.034V345h12v-23.8h64.627V345h12v-23.8h28.034a8.502 8.502 0 018.458 7.568l14.11 126.86a21.851 21.851 0 01-5.429 16.967z"
    fill="#ffffff">
  </path>
</svg>