<svg viewBox="0 0 32 32" id="cycle" xmlns="http://www.w3.org/2000/svg" fill="#ffffff">
  <g data-name="27-Document-Process">
    <path
      d="M28.71 6.29l-6-6A1 1 0 0022 0H6a3 3 0 00-3 3v26a3 3 0 003 3h20a3 3 0 003-3V7a1 1 0 00-.29-.71zM27 29a1 1 0 01-1 1H6a1 1 0 01-1-1V3a1 1 0 011-1h15v4a2 2 0 002 2h4z"
      fill="#ffffff">
    </path>
    <path
      d="M19.43 16l1.27-1.27-1.41-1.41L18 14.57a4 4 0 00-1-.42V12h-2v2.14a4 4 0 00-1 .42l-1.27-1.27-1.41 1.41 1.25 1.3a4 4 0 00-.42 1H10v2h2.14a4 4 0 00.42 1l-1.27 1.27 1.41 1.41 1.3-1.25a4 4 0 001 .42V24h2v-2.14a4 4 0 001-.42l1.27 1.27 1.41-1.41-1.25-1.3a4 4 0 00.42-1H22v-2h-2.14a4 4 0 00-.43-1zM16 20a2 2 0 112-2 2 2 0 01-2 2z"
      fill="#ffffff">
    </path>
  </g>
</svg>