<svg width="20.000000" height="20.000000" viewBox="0 0 20 20" fill="none" xmlns="http://www.w3.org/2000/svg" xmlns:xlink="http://www.w3.org/1999/xlink">
	<desc>
			Created with Pixso.
	</desc>
	<defs>
		<clipPath id="clip457_8473">
			<rect id="Иконка фильтра" width="20.000000" height="20.000000" fill="white" fill-opacity="0"/>
		</clipPath>
	</defs>
	<g clip-path="url(#clip457_8473)">
		<path id="path" d="M5.83 2.06C5.32 2.06 4.89 2.3 4.53 2.77C4.18 3.24 4 3.81 4 4.47C4 5.14 4.18 5.71 4.53 6.18C4.89 6.65 5.32 6.89 5.83 6.89C6.34 6.89 6.77 6.65 7.13 6.18C7.5 5.71 7.68 5.14 7.68 4.47C7.68 3.81 7.5 3.24 7.13 2.77C6.77 2.3 6.34 2.06 5.83 2.06ZM2.63 3.53C2.8 2.57 3.17 1.77 3.77 1.13C4.36 0.49 5.05 0.17 5.83 0.17C6.74 0.17 7.52 0.6 8.16 1.44C8.8 2.29 9.12 3.3 9.12 4.47C9.12 5.67 8.8 6.69 8.16 7.52C7.52 8.36 6.74 8.77 5.83 8.77C5.05 8.77 4.36 8.46 3.77 7.82C3.17 7.18 2.8 6.38 2.63 5.42L0.72 5.42C0.52 5.42 0.35 5.33 0.21 5.15C0.07 4.98 0 4.75 0 4.47C0 4.22 0.07 4 0.21 3.81C0.35 3.63 0.52 3.53 0.72 3.53L2.63 3.53ZM10.24 4.47C10.24 4.22 10.31 4 10.46 3.81C10.6 3.63 10.77 3.53 10.96 3.53L18.64 3.53C18.84 3.53 19.01 3.63 19.15 3.81C19.29 4 19.36 4.22 19.36 4.47C19.36 4.73 19.29 4.95 19.15 5.14C19.01 5.32 18.84 5.42 18.64 5.42L10.96 5.42C10.77 5.42 10.6 5.32 10.46 5.14C10.31 4.95 10.24 4.73 10.24 4.47ZM13.53 12.54C13.02 12.54 12.59 12.78 12.22 13.25C11.86 13.72 11.68 14.29 11.68 14.96C11.68 15.63 11.86 16.2 12.22 16.67C12.59 17.14 13.02 17.37 13.53 17.37C14.04 17.37 14.47 17.14 14.83 16.67C15.18 16.2 15.36 15.63 15.36 14.96C15.36 14.29 15.18 13.72 14.83 13.25C14.47 12.78 14.04 12.54 13.53 12.54ZM10.24 14.96C10.24 13.76 10.56 12.75 11.2 11.91C11.84 11.08 12.62 10.66 13.53 10.66C14.31 10.66 15 10.98 15.59 11.62C16.18 12.25 16.56 13.05 16.73 14.02L18.64 14.02C18.84 14.02 19.01 14.11 19.15 14.28C19.29 14.46 19.36 14.68 19.36 14.96C19.36 15.21 19.29 15.44 19.15 15.62C19.01 15.81 18.84 15.9 18.64 15.9L16.73 15.9C16.56 16.86 16.18 17.66 15.59 18.3C15 18.94 14.31 19.26 13.53 19.26C12.62 19.26 11.84 18.84 11.2 17.99C10.56 17.15 10.24 16.14 10.24 14.96ZM0 14.96C0 14.68 0.07 14.46 0.21 14.28C0.35 14.11 0.52 14.02 0.72 14.02L8.4 14.02C8.59 14.02 8.76 14.11 8.9 14.28C9.05 14.46 9.12 14.68 9.12 14.96C9.12 15.21 9.05 15.44 8.9 15.62C8.76 15.81 8.59 15.9 8.4 15.9L0.72 15.9C0.52 15.9 0.35 15.81 0.21 15.62C0.07 15.44 0 15.21 0 14.96Z" fill="#FFFFFF" fill-opacity="1.000000" fill-rule="nonzero"/>
	</g>
</svg>
