<svg width="41.000000" height="49.000000" viewBox="0 0 41 49" fill="none" xmlns="http://www.w3.org/2000/svg" xmlns:xlink="http://www.w3.org/1999/xlink">
	<desc>
			Created with Pixso.
	</desc>
	<defs>
		<clipPath id="clip138_477">
			<rect id="фрейм 5" width="41.000000" height="49.000000" fill="white" fill-opacity="0"/>
		</clipPath>
	</defs>
	<g clip-path="url(#clip138_477)">
		<mask id="mask138_479" mask-type="alpha" maskUnits="userSpaceOnUse" x="0.000000" y="-0.500000" width="41.000000" height="50.000000">
			<rect id="location-icon" y="-0.500000" width="41.000000" height="50.000000" fill="#FF0000" fill-opacity="1.000000"/>
		</mask>
		<g mask="url(#mask138_479)">
			<path id="path" d="M38 18.87C38 9.54 30.16 2 20.5 2C10.83 2 3 9.54 3 18.87C3 33.5 20.5 47 20.5 47C20.5 47 38 33.5 38 18.87Z" fill="#FF0000" fill-opacity="0" fill-rule="nonzero"/>
			<path id="path" d="M20.5 2C10.83 2 3 9.54 3 18.87C3 33.5 20.5 47 20.5 47C20.5 47 38 33.5 38 18.87C38 9.54 30.16 2 20.5 2Z" stroke="#FF0000" stroke-opacity="1.000000" stroke-width="3.500000" stroke-linejoin="round"/>
			<path id="path" d="M28.14 18.28C28.14 14.4 24.88 11.25 20.85 11.25C16.82 11.25 13.56 14.4 13.56 18.28C13.56 22.16 16.82 25.32 20.85 25.32C24.88 25.32 28.14 22.16 28.14 18.28Z" fill="#FF0000" fill-opacity="0" fill-rule="nonzero"/>
			<path id="path" d="M20.85 11.25C16.82 11.25 13.56 14.4 13.56 18.28C13.56 22.16 16.82 25.32 20.85 25.32C24.88 25.32 28.14 22.16 28.14 18.28C28.14 14.4 24.88 11.25 20.85 11.25Z" stroke="#FF0000" stroke-opacity="1.000000" stroke-width="3.500000" stroke-linejoin="round"/>
		</g>
	</g>
</svg>
