<svg width="30.000000" height="30.000000" viewBox="0 0 30 30" fill="none" xmlns="http://www.w3.org/2000/svg" xmlns:xlink="http://www.w3.org/1999/xlink">
	<desc>
			Created with Pixso.
	</desc>
	<defs/>
	<rect id="message-icon" width="30.000000" height="30.000000" fill="#FFFFFF" fill-opacity="0"/>
	<path id="path" d="M23.75 1.5L6.25 1.5C5.42 1.5 4.62 1.65 3.85 1.96C3.09 2.28 2.41 2.72 1.83 3.29C1.24 3.87 0.79 4.53 0.47 5.28C0.16 6.04 0 6.82 0 7.63L0 22.36C0 23.17 0.16 23.95 0.47 24.71C0.79 25.46 1.24 26.12 1.83 26.7C2.41 27.27 3.09 27.71 3.85 28.03C4.62 28.34 5.42 28.49 6.25 28.5L23.75 28.5C24.57 28.49 25.37 28.34 26.14 28.03C26.9 27.71 27.58 27.27 28.16 26.7C28.75 26.12 29.2 25.46 29.52 24.71C29.83 23.95 29.99 23.17 30 22.36L30 7.63C29.99 6.82 29.83 6.04 29.52 5.28C29.2 4.53 28.75 3.87 28.16 3.29C27.58 2.72 26.9 2.28 26.14 1.96C25.37 1.65 24.57 1.5 23.75 1.5ZM6.25 3.95L23.75 3.95C25.43 3.95 26.59 4.72 27.22 6.27L17.65 15.66C16.91 16.38 16.03 16.74 15 16.74C13.96 16.74 13.08 16.38 12.34 15.66L2.77 6.27C3.4 4.72 4.56 3.95 6.25 3.95ZM23.75 26.04L6.25 26.04C5.21 26.04 4.33 25.68 3.59 24.96C2.86 24.24 2.5 23.37 2.5 22.36L2.5 9.47L10.58 17.4C11.16 17.97 11.84 18.42 12.6 18.73C13.37 19.04 14.17 19.2 15 19.2C15.82 19.2 16.62 19.04 17.39 18.73C18.15 18.42 18.83 17.97 19.41 17.4L27.5 9.47L27.5 22.36C27.5 23.37 27.13 24.24 26.4 24.96C25.66 25.68 24.78 26.04 23.75 26.04Z" fill="#FF0000" fill-opacity="1.000000" fill-rule="nonzero"/>
</svg>
