<svg width="20.000000" height="20.000000" viewBox="0 0 20 20" fill="none" xmlns="http://www.w3.org/2000/svg" xmlns:xlink="http://www.w3.org/1999/xlink">
	<desc>
			Created with Pixso.
	</desc>
	<defs>
		<clipPath id="clip469_5917">
			<rect id="share" width="20.000000" height="20.000000" fill="white" fill-opacity="0"/>
		</clipPath>
	</defs>
	<g clip-path="url(#clip469_5917)">
		<path id="path" d="M19 4.37C19 6.23 17.38 7.75 15.4 7.75C14.26 7.75 13.25 7.25 12.59 6.48L7.99 8.87C8.12 9.22 8.19 9.6 8.19 10C8.19 10.39 8.12 10.77 7.99 11.12L12.59 13.51C13.25 12.74 14.26 12.25 15.4 12.25C17.38 12.25 19 13.76 19 15.62C19 17.48 17.38 19 15.4 19C13.41 19 11.79 17.48 11.79 15.62C11.79 15.23 11.87 14.85 12 14.5L7.4 12.1C6.74 12.87 5.73 13.37 4.59 13.37C2.61 13.37 1 11.86 1 10C1 8.13 2.61 6.62 4.59 6.62C5.73 6.62 6.74 7.12 7.4 7.89L12 5.49C11.87 5.14 11.79 4.76 11.79 4.37C11.79 2.51 13.41 1 15.4 1C17.38 1 19 2.51 19 4.37ZM17.79 4.37C17.79 3.13 16.72 2.12 15.4 2.12C14.07 2.12 13 3.13 13 4.37C13 5.61 14.07 6.62 15.4 6.62C16.72 6.62 17.79 5.61 17.79 4.37ZM2.2 10C2.2 11.24 3.27 12.25 4.59 12.25C5.92 12.25 7 11.24 7 10C7 8.75 5.92 7.75 4.59 7.75C3.27 7.75 2.2 8.75 2.2 10ZM17.79 15.62C17.79 14.38 16.72 13.37 15.4 13.37C14.07 13.37 13 14.38 13 15.62C13 16.86 14.07 17.87 15.4 17.87C16.72 17.87 17.79 16.86 17.79 15.62Z" fill="#FFFFFF" fill-opacity="1.000000" fill-rule="evenodd"/>
	</g>
</svg>
