<svg  fill="none" xmlns="http://www.w3.org/2000/svg" xmlns:xlink="http://www.w3.org/1999/xlink">
	<desc>
			Created with Pixso.
	</desc>
	<defs>
		<linearGradient x1="13.500009" y1="23.668951" x2="13.500009" y2="1.571281" id="paint_linear_138_445_0" gradientUnits="userSpaceOnUse">
			<stop stop-color="#28BE41"/>
			<stop offset="1.000000" stop-color="#3ED657"/>
		</linearGradient>
		<linearGradient x1="9.700002" y1="7.999997" x2="22.000004" y2="19.099998" id="paint_linear_138_446_0" gradientUnits="userSpaceOnUse">
			<stop stop-color="#000000" stop-opacity="0.109804"/>
			<stop offset="1.000000" stop-color="#000000" stop-opacity="0.058824"/>
		</linearGradient>
		<linearGradient x1="12.759925" y1="24.280003" x2="13.000003" y2="1.000000" id="paint_linear_138_447_0" gradientUnits="userSpaceOnUse">
			<stop stop-color="#ECECEC"/>
			<stop offset="1.000000" stop-color="#FFFFFF"/>
		</linearGradient>
	</defs>
	<path id="path" d="M13.5 1C19.85 0.98 25.01 6.14 25 12.5C25.01 18.85 19.85 24.01 13.5 24C11.36 24 9.26 23.41 7.44 22.29L2.74 23.25L4.01 19.01C2.69 17.1 1.99 14.82 2 12.5C1.98 6.14 7.14 0.98 13.5 1Z" fill="url(#paint_linear_138_445_0)" fill-opacity="1.000000" fill-rule="nonzero"/>
	<path id="path" d="M8 8.19L7 10.55L9.91 15.61L17.31 23C19.31 22.37 20.99 20.99 22 19.16L18.53 15.71C18.47 15.67 18.42 15.63 18.36 15.6C18.27 15.55 18.16 15.5 18.03 15.44C17.81 15.33 16.99 14.93 16.48 14.7L9.66 8L8 8.19Z" fill="url(#paint_linear_138_446_0)" fill-opacity="1.000000" fill-rule="nonzero"/>
	<path id="path" d="M13.19 1C4.22 1 -1.47 10.62 2.86 18.49L1 25L7.94 23.36C15.78 27.26 24.99 21.56 25 12.8C25 6.28 19.71 1 13.19 1ZM13.19 1.98C19.17 1.97 24.02 6.82 24.01 12.8C24.03 21.04 15.19 26.26 7.97 22.28L2.39 23.61L3.98 18.47C-0.48 11.26 4.72 1.96 13.19 1.98Z" fill="url(#paint_linear_138_447_0)" fill-opacity="1.000000" fill-rule="nonzero"/>
	<path id="path" d="M18.95 16.21C18.88 16.09 18.68 16.02 18.39 15.87C17.72 15.54 17.05 15.23 16.37 14.92C16.1 14.82 15.9 14.78 15.7 15.07C15.4 15.46 15.09 15.85 14.77 16.21C14.6 16.41 14.42 16.44 14.13 16.29C13.84 16.14 12.88 15.84 11.76 14.84C11.11 14.25 10.56 13.57 10.11 12.81C9.94 12.52 10.1 12.36 10.24 12.22C10.37 12.08 10.54 11.87 10.69 11.71C10.83 11.54 10.88 11.41 10.98 11.22C11.08 11.02 11.03 10.85 10.95 10.7C10.88 10.56 10.29 9.12 10.04 8.53C9.57 7.7 8.54 7.99 8.03 8.39C7.71 8.63 7 9.39 7 10.83C7 12.26 8.05 13.65 8.2 13.85C8.35 14.04 10.24 17.09 13.25 18.26C14.88 19.01 17.92 19.69 18.78 17.61C19.03 16.92 19.03 16.34 18.95 16.21Z" fill="#F2F2F2" fill-opacity="1.000000" fill-rule="nonzero"/>
</svg>
