<svg width="50.000000" height="50.000000" viewBox="0 0 50 50" fill="none" xmlns="http://www.w3.org/2000/svg" xmlns:xlink="http://www.w3.org/1999/xlink">
	<desc>
			Created with Pixso.
	</desc>
	<defs/>
	<path id="path" d="M0 2C0 1.45 0.19 0.98 0.58 0.59C0.96 0.19 1.42 0 1.95 0L5.56 0C6.42 0 7.21 0.22 7.95 0.68C8.68 1.14 9.25 1.77 9.66 2.56L11.01 5.31L46.67 5.31C47.93 5.31 48.88 5.86 49.51 6.96C50.15 8.07 50.16 9.18 49.54 10.31L40.92 25.62C40.51 26.37 39.96 26.95 39.27 27.37C38.57 27.79 37.82 28 37 28L17.37 28L13.94 33.62C13.82 33.87 13.82 34.11 13.94 34.34C14.06 34.57 14.25 34.68 14.49 34.68L43.73 34.68C44.26 34.68 44.72 34.87 45.11 35.25C45.5 35.62 45.69 36.1 45.69 36.68C45.69 37.22 45.5 37.69 45.11 38.09C44.72 38.48 44.26 38.68 43.73 38.68L14.49 38.68C12.7 38.68 11.36 37.88 10.49 36.28C9.61 34.67 9.66 33.08 10.64 31.5L14.13 25.75L8.01 8.12L6.17 4.37C6.09 4.25 6 4.15 5.9 4.09C5.8 4.03 5.68 4 5.56 4L1.95 4C1.42 4 0.96 3.8 0.58 3.4C0.19 3.01 0 2.54 0 2ZM12.54 9.31L17.67 24L37 24C37.08 24 37.18 23.96 37.28 23.9C37.38 23.84 37.47 23.77 37.55 23.68L45.57 9.31L12.54 9.31ZM20.24 46C20.24 47.12 19.86 48.07 19.08 48.84C18.31 49.61 17.39 50 16.33 50C15.23 50 14.3 49.61 13.54 48.84C12.79 48.07 12.41 47.12 12.41 46C12.41 44.87 12.79 43.92 13.54 43.15C14.3 42.38 15.23 42 16.33 42C17.39 42 18.31 42.38 19.08 43.15C19.86 43.92 20.24 44.87 20.24 46ZM39.82 50C40.88 50 41.8 49.61 42.57 48.84C43.34 48.07 43.73 47.12 43.73 46C43.73 44.87 43.34 43.92 42.57 43.15C41.8 42.38 40.88 42 39.82 42C38.72 42 37.79 42.38 37.03 43.15C36.28 43.92 35.9 44.87 35.9 46C35.9 47.12 36.28 48.07 37.03 48.84C37.79 49.61 38.72 50 39.82 50Z" fill="#FFFFFF" fill-opacity="1.000000" fill-rule="nonzero"/>
</svg>
