<svg width="20.000000" height="20.000000" viewBox="0 0 20 20" fill="none" xmlns="http://www.w3.org/2000/svg" xmlns:xlink="http://www.w3.org/1999/xlink">
	<desc>
			Created with Pixso.
	</desc>
	<defs/>
	<rect id="instagramm-icon" width="20.000000" height="20.000000" fill="#FFFFFF" fill-opacity="0"/>
	<path id="path" d="M10 1.8C12.66 1.8 12.98 1.81 14.04 1.86C15.13 1.9 16.25 2.15 17.04 2.95C17.84 3.75 18.08 4.86 18.14 5.95C18.18 7.01 18.19 7.33 18.19 10C18.19 12.66 18.18 12.98 18.14 14.04C18.09 15.12 17.83 16.25 17.04 17.04C16.24 17.84 15.13 18.09 14.04 18.13C12.98 18.18 12.66 18.19 10 18.19C7.33 18.19 7.01 18.18 5.95 18.13C4.88 18.09 3.73 17.83 2.95 17.04C2.15 16.25 1.91 15.12 1.85 14.04C1.81 12.98 1.8 12.66 1.8 10C1.8 7.33 1.81 7.01 1.85 5.95C1.9 4.87 2.16 3.73 2.95 2.95C3.75 2.15 4.86 1.9 5.95 1.86C7.01 1.81 7.33 1.8 10 1.8ZM10 0C7.28 0 6.94 0.01 5.87 0.06C4.33 0.13 2.79 0.56 1.67 1.67C0.55 2.8 0.13 4.33 0.06 5.87C0.01 6.94 0 7.28 0 10C0 12.71 0.01 13.05 0.06 14.12C0.13 15.66 0.56 17.2 1.67 18.32C2.79 19.44 4.33 19.86 5.87 19.93C6.94 19.98 7.28 20 10 20C12.71 20 13.05 19.98 14.12 19.93C15.66 19.86 17.2 19.43 18.32 18.32C19.44 17.19 19.86 15.66 19.93 14.12C19.98 13.05 20 12.71 20 10C20 7.28 19.98 6.94 19.93 5.87C19.86 4.33 19.43 2.79 18.32 1.67C17.2 0.55 15.66 0.12 14.12 0.06C13.05 0.01 12.71 0 10 0Z" fill="#FF0000" fill-opacity="1.000000" fill-rule="nonzero"/>
	<path id="path" d="M10 4.86C7.16 4.86 4.86 7.16 4.86 10C4.86 12.83 7.16 15.13 10 15.13C12.83 15.13 15.13 12.83 15.13 10C15.13 7.16 12.83 4.86 10 4.86ZM10 13.33C8.15 13.33 6.66 11.84 6.66 10C6.66 8.15 8.15 6.66 10 6.66C11.84 6.66 13.33 8.15 13.33 10C13.33 11.84 11.84 13.33 10 13.33Z" fill="#FF0000" fill-opacity="1.000000" fill-rule="nonzero"/>
	<ellipse id="circle" cx="15.338379" cy="4.661377" rx="1.200001" ry="1.200000" fill="#FF0000" fill-opacity="1.000000"/>
</svg>
