<svg width="20.000000" height="20.000000" viewBox="0 0 20 20" fill="none" xmlns="http://www.w3.org/2000/svg" xmlns:xlink="http://www.w3.org/1999/xlink">
	<desc>
			Created with Pixso.
	</desc>
	<defs/>
	<rect id="ok" width="20.000000" height="20.000000" fill="#FFFFFF" fill-opacity="0"/>
	<path id="path" d="M12.29 14.04C14.79 13.66 16.28 12.77 16.36 12.72C17.09 12.29 17.21 11.49 16.62 10.94C16.04 10.39 14.97 10.31 14.24 10.74C14.23 10.75 12.63 11.67 10.01 11.67C7.39 11.67 5.76 10.75 5.75 10.74C5.02 10.31 3.95 10.39 3.37 10.94C2.78 11.49 2.9 12.29 3.63 12.72C3.71 12.77 5.26 13.68 7.83 14.05L4.26 16.85C3.61 17.35 3.63 18.15 4.3 18.64C4.63 18.88 5.05 19 5.47 19C5.92 19 6.36 18.87 6.69 18.61L10.01 15.96L13.67 18.62C14.33 19.12 15.4 19.12 16.06 18.62C16.72 18.13 16.72 17.32 16.06 16.83L12.29 14.04Z" fill="#FFFFFF" fill-opacity="1.000000" fill-rule="nonzero"/>
	<path id="path" d="" fill="#FFFFFF" fill-opacity="1.000000" fill-rule="nonzero"/>
	<path id="path" d="M10.1 1C6.66 1 3.87 3.08 3.87 5.66C3.87 8.24 6.66 10.32 10.1 10.32C13.54 10.32 16.32 8.24 16.32 5.66C16.32 3.08 13.54 1 10.1 1ZM10.1 7.59C8.67 7.59 7.52 6.72 7.52 5.66C7.52 4.59 8.67 3.73 10.1 3.73C11.52 3.73 12.67 4.59 12.67 5.66C12.67 6.72 11.52 7.59 10.1 7.59Z" fill="#FFFFFF" fill-opacity="1.000000" fill-rule="nonzero"/>
</svg>
