<svg width="20.000000" height="20.000000" viewBox="0 0 20 20" fill="none" xmlns="http://www.w3.org/2000/svg" xmlns:xlink="http://www.w3.org/1999/xlink">
	<desc>
			Created with Pixso.
	</desc>
	<defs/>
	<rect id="telephone-icon-2" width="20.000000" height="20.000000" fill="#FFFFFF" fill-opacity="0"/>
	<path id="path" d="M18.66 8.75L18.67 8.77C18.61 9.19 18.24 9.47 17.82 9.41C17.41 9.34 17.13 8.97 17.19 8.56L17.21 8.54L18.66 8.75ZM11.57 2.78L11.55 2.8C11.14 2.86 10.76 2.59 10.7 2.17C10.64 1.76 10.91 1.38 11.33 1.32L11.35 1.33L11.57 2.78Z" fill="#000000" fill-opacity="0" fill-rule="nonzero"/>
	<path id="path" d="M17.93 8.66C18.04 7.91 18.01 7.13 17.82 6.38C17.58 5.4 17.08 4.47 16.32 3.7C15.57 2.93 14.65 2.42 13.68 2.17C12.95 1.98 12.19 1.95 11.44 2.06" stroke="#FF0000" stroke-opacity="1.000000" stroke-width="1.500000" stroke-linejoin="round" stroke-linecap="round"/>
	<path id="path" d="M15.33 8.39L15.34 8.41C15.28 8.83 14.91 9.11 14.49 9.05C14.08 8.99 13.8 8.61 13.86 8.2L13.88 8.18L15.33 8.39ZM11.73 5.98L11.72 6C11.3 6.06 10.93 5.78 10.86 5.37C10.8 4.95 11.08 4.58 11.49 4.51L11.51 4.53L11.73 5.98Z" fill="#000000" fill-opacity="0" fill-rule="nonzero"/>
	<path id="path" d="M14.6 8.3C14.72 7.49 14.47 6.64 13.86 6.01C13.24 5.39 12.4 5.14 11.6 5.26" stroke="#FF0000" stroke-opacity="1.000000" stroke-width="1.500000" stroke-linejoin="round" stroke-linecap="round"/>
	<path id="path" d="M5.9 3.39C6.22 3.39 6.51 3.56 6.67 3.85L7.74 5.82C7.88 6.07 7.89 6.38 7.76 6.65L6.72 8.75C6.72 8.75 7.03 10.32 8.28 11.6C9.54 12.88 11.07 13.18 11.07 13.18L13.14 12.12C13.4 11.99 13.71 12 13.96 12.14L15.9 13.24C16.18 13.4 16.35 13.7 16.35 14.02L16.35 16.29C16.35 17.44 15.3 18.28 14.22 17.91C12.02 17.15 8.59 15.71 6.42 13.5C4.25 11.29 2.83 7.8 2.08 5.55C1.72 4.46 2.54 3.39 3.67 3.39L5.9 3.39Z" fill="#000000" fill-opacity="0" fill-rule="nonzero"/>
	<path id="path" d="M6.67 3.85L7.74 5.82C7.88 6.07 7.89 6.38 7.76 6.65L6.72 8.75C6.72 8.75 7.03 10.32 8.28 11.6C9.54 12.88 11.07 13.18 11.07 13.18L13.14 12.12C13.4 11.99 13.71 12 13.96 12.14L15.9 13.24C16.18 13.4 16.35 13.7 16.35 14.02L16.35 16.29C16.35 17.44 15.3 18.28 14.22 17.91C12.02 17.15 8.59 15.71 6.42 13.5C4.25 11.29 2.83 7.8 2.08 5.55C1.72 4.46 2.54 3.39 3.67 3.39L5.9 3.39C6.22 3.39 6.51 3.56 6.67 3.85Z" stroke="#FF0000" stroke-opacity="1.000000" stroke-width="1.500000" stroke-linejoin="round"/>
</svg>
