<svg width="40.000000" height="40.000000" viewBox="0 0 40 40" fill="none" xmlns="http://www.w3.org/2000/svg" xmlns:xlink="http://www.w3.org/1999/xlink">
	<desc>
			Created with Pixso.
	</desc>
	<defs/>
	<path id="path" d="M32 0L8 0C3.58 0 0 3.58 0 8L0 32C0 36.41 3.58 40 8 40L32 40C36.41 40 40 36.41 40 32L40 8C40 3.58 36.41 0 32 0ZM36 30C36 33.31 33.31 35.99 30 35.99L10 35.99C6.68 35.99 4 33.31 4 30L4 9.99C4 6.68 6.68 3.99 10 3.99L30 3.99C33.31 3.99 36 6.68 36 9.99L36 30ZM31.51 25.68L25.59 22.68L25.13 22.52C24.85 22.52 24.62 22.64 24.44 22.87L21.91 25.17C21.59 25.49 21.23 25.54 20.84 25.31C19.65 24.57 18.52 23.67 17.46 22.6C16.44 21.6 15.56 20.46 14.79 19.2C14.56 18.82 14.6 18.46 14.9 18.12L17.43 15.6C17.64 15.39 17.75 15.16 17.75 14.91C17.75 14.76 17.71 14.6 17.62 14.42L14.37 8.47C14.19 8.15 13.93 7.99 13.59 7.99C11.8 8.15 10.46 8.67 9.59 9.55C8.78 10.37 8.28 11.43 8.1 12.74C7.92 14.04 8.03 15.43 8.43 16.92C8.83 18.4 9.51 19.95 10.47 21.55C11.43 23.16 12.61 24.67 13.99 26.08C15.86 27.96 17.85 29.42 19.98 30.45C22.1 31.49 24.08 32.01 25.91 32.01C27.76 32.01 29.22 31.46 30.31 30.37C31.3 29.39 31.86 28.09 31.99 26.49C31.99 26.13 31.83 25.86 31.51 25.68Z" fill="#FFFFFF" fill-opacity="1.000000" fill-rule="nonzero"/>
</svg>
