<svg width="40.000000" height="40.000000" viewBox="0 0 40 40" fill="none" xmlns="http://www.w3.org/2000/svg" xmlns:xlink="http://www.w3.org/1999/xlink">
	<desc>
			Created with Pixso.
	</desc>
	<defs>
		<clipPath id="clip449_6583">
			<rect id="Thermometer" rx="0.000000" width="39.000000" height="39.000000" transform="translate(0.500000 0.500000)" fill="white" fill-opacity="0"/>
		</clipPath>
	</defs>
	<rect id="Thermometer" rx="0.000000" width="39.000000" height="39.000000" transform="translate(0.500000 0.500000)" fill="#FFFFFF" fill-opacity="0"/>
	<g clip-path="url(#clip449_6583)">
		<path id="path" d="M15 21.66L15 8.33C15 5.57 17.23 3.33 20 3.33C22.76 3.33 25 5.57 25 8.33L25 21.66C27.02 23.18 28.33 25.6 28.33 28.33C28.33 32.93 24.6 36.66 20 36.66C15.39 36.66 11.66 32.93 11.66 28.33C11.66 25.6 12.97 23.18 15 21.66Z" fill="#000000" fill-opacity="0" fill-rule="nonzero"/>
		<path id="path" d="M15 8.33C15 5.57 17.23 3.33 20 3.33C22.76 3.33 25 5.57 25 8.33L25 21.66C27.02 23.18 28.33 25.6 28.33 28.33C28.33 32.93 24.6 36.66 20 36.66C15.39 36.66 11.66 32.93 11.66 28.33C11.66 25.6 12.97 23.18 15 21.66L15 8.33Z" stroke="#FFFFFF" stroke-opacity="1.000000" stroke-width="1.500000" stroke-linejoin="round"/>
		<path id="path" d="M19.27 14.18L19.25 14.16C19.25 13.74 19.58 13.41 20 13.41C20.42 13.41 20.75 13.74 20.75 14.16L20.73 14.18L19.27 14.18ZM20.73 24.98L20.75 25C20.75 25.42 20.42 25.75 20 25.75C19.58 25.75 19.25 25.42 19.25 25L19.27 24.98L20.73 24.98Z" fill="#000000" fill-opacity="0" fill-rule="nonzero"/>
		<path id="path" d="M20 14.16L20 25" stroke="#FFFFFF" stroke-opacity="1.000000" stroke-width="1.500000" stroke-linejoin="round" stroke-linecap="round"/>
		<path id="path" d="M20 31.66C21.84 31.66 23.33 30.17 23.33 28.33C23.33 26.49 21.84 25 20 25C18.15 25 16.66 26.49 16.66 28.33C16.66 30.17 18.15 31.66 20 31.66Z" fill="#000000" fill-opacity="0" fill-rule="nonzero"/>
		<path id="path" d="M23.33 28.33C23.33 26.49 21.84 25 20 25C18.15 25 16.66 26.49 16.66 28.33C16.66 30.17 18.15 31.66 20 31.66C21.84 31.66 23.33 30.17 23.33 28.33Z" stroke="#FFFFFF" stroke-opacity="1.000000" stroke-width="1.500000" stroke-linejoin="round"/>
	</g>
	<rect id="Thermometer" rx="0.000000" width="39.000000" height="39.000000" transform="translate(0.500000 0.500000)" stroke="#000000" stroke-opacity="0" stroke-width="1.000000"/>
</svg>
