<svg width="20.000000" height="20.055664" viewBox="0 0 20 20.0557" fill="none" xmlns="http://www.w3.org/2000/svg" xmlns:xlink="http://www.w3.org/1999/xlink">
	<desc>
			Created with Pixso.
	</desc>
	<defs/>
	<rect id="checkbox-icon" width="20.000000" height="17.777779" transform="translate(0.000000 2.222168)" fill="#FFFFFF" fill-opacity="0"/>
	<path id="path" d="M19.02 8.99L19 8.97C19 8.69 19.22 8.47 19.5 8.47C19.78 8.47 20 8.69 20 8.97L19.98 8.99L19.02 8.99ZM12.48 2.18L12.5 2.16C12.77 2.16 13 2.38 13 2.66C13 2.94 12.77 3.16 12.5 3.16L12.48 3.14L12.48 2.18Z" fill="#000000" fill-opacity="0" fill-rule="nonzero"/>
	<path id="path" d="M19.5 8.97L19.5 17.97C19.5 18.75 18.55 19.55 17.68 19.55L2.06 19.55C1.19 19.55 0.5 18.92 0.5 18.14L0.5 4.07C0.5 3.29 1.19 2.66 2.06 2.66L12.5 2.66" stroke="#FF0000" stroke-opacity="1.000000" stroke-width="1.000000" stroke-linejoin="round" stroke-linecap="round"/>
	<rect id="checkbox-mark-icon" width="16.500000" height="14.666666" transform="translate(3.500000 0.000000)" fill="#FFFFFF" fill-opacity="0"/>
	<path id="path" d="M4.69 9.3L4.66 9.3C4.34 9.03 4.3 8.56 4.57 8.24C4.84 7.92 5.31 7.88 5.63 8.15L5.63 8.18L4.69 9.3ZM17.73 1.07L17.72 1.04C17.96 0.69 18.42 0.61 18.77 0.84C19.11 1.08 19.2 1.53 18.97 1.88L18.94 1.89L17.73 1.07Z" fill="#000000" fill-opacity="0" fill-rule="nonzero"/>
	<path id="path" d="M5.15 8.73L10.43 13.2L18.35 1.46" stroke="#FF0000" stroke-opacity="1.000000" stroke-width="1.500000" stroke-linejoin="round" stroke-linecap="round"/>
</svg>
