<svg width="30.000000" height="30.000000" viewBox="0 0 30 30" fill="none" xmlns="http://www.w3.org/2000/svg" xmlns:xlink="http://www.w3.org/1999/xlink">
	<desc>
			Created with Pixso.
	</desc>
	<defs>
		<clipPath id="clip588_3642">
			<rect id="home-icon" width="30.000000" height="30.000000" fill="white" fill-opacity="0"/>
		</clipPath>
	</defs>
	<g clip-path="url(#clip588_3642)">
		<path id="path" d="M27.5 7.15L27.5 2.5C27.5 1.8 26.94 1.25 26.25 1.25C25.55 1.25 25 1.8 25 2.5L25 5.45L18.49 1.06C16.37 -0.37 13.62 -0.37 11.5 1.06L2.75 6.97C1.03 8.13 0 10.07 0 12.15L0 23.75C0 27.19 2.8 30 6.25 30L10 30C10.69 30 11.25 29.43 11.25 28.75L11.25 18.75C11.25 18.06 11.8 17.5 12.5 17.5L17.5 17.5C18.19 17.5 18.75 18.06 18.75 18.75L18.75 28.75C18.75 29.43 19.3 30 20 30L23.75 30C27.19 30 30 27.19 30 23.75L30 12.15C30 10.17 29.07 8.33 27.5 7.15ZM27.5 23.75C27.5 25.81 25.81 27.5 23.75 27.5L21.25 27.5L21.25 18.75C21.25 16.68 19.56 15 17.5 15L12.5 15C10.43 15 8.75 16.68 8.75 18.75L8.75 27.5L6.25 27.5C4.18 27.5 2.5 25.81 2.5 23.75L2.5 12.15C2.5 10.9 3.11 9.74 4.15 9.04L12.9 3.14C14.17 2.28 15.82 2.28 17.09 3.14L25.84 9.04C26.88 9.74 27.49 10.9 27.49 12.15L27.5 23.75Z" fill="#FF0000" fill-opacity="1.000000" fill-rule="nonzero"/>
	</g>
</svg>
