<svg width="20.000000" height="20.000000" viewBox="0 0 20 20" fill="none" xmlns="http://www.w3.org/2000/svg" xmlns:xlink="http://www.w3.org/1999/xlink">
	<desc>
			Created with Pixso.
	</desc>
	<defs/>
	<rect id="search-icon" width="20.000000" height="20.000000" fill="#FFFFFF" fill-opacity="0"/>
	<path id="path" d="M15.38 8.69C15.38 10.46 14.68 12.17 13.42 13.42C12.17 14.68 10.46 15.38 8.69 15.38C6.91 15.38 5.21 14.68 3.96 13.42C2.7 12.17 2 10.46 2 8.69C2 6.91 2.7 5.21 3.96 3.96C5.21 2.7 6.91 2 8.69 2C10.46 2 12.17 2.7 13.42 3.96C14.68 5.21 15.38 6.91 15.38 8.69ZM18.69 17.27L18.72 17.27C19.13 17.68 19.13 18.31 18.72 18.72C18.31 19.13 17.68 19.13 17.27 18.72L17.27 18.69L18.69 17.27Z" fill="#000000" fill-opacity="0" fill-rule="nonzero"/>
	<path id="path" d="M13.42 13.42L18 18M13.42 13.42C12.17 14.68 10.46 15.38 8.69 15.38C6.91 15.38 5.21 14.68 3.96 13.42C2.7 12.17 2 10.46 2 8.69C2 6.91 2.7 5.21 3.96 3.96C5.21 2.7 6.91 2 8.69 2C10.46 2 12.17 2.7 13.42 3.96C14.68 5.21 15.38 6.91 15.38 8.69C15.38 10.46 14.68 12.17 13.42 13.42Z" stroke="#FFFFFF" stroke-opacity="1.000000" stroke-width="2.052630" stroke-linejoin="round" stroke-linecap="round"/>
</svg>
