<svg width="20.000000" height="20.000000" viewBox="0 0 20 20" fill="none" xmlns="http://www.w3.org/2000/svg" xmlns:xlink="http://www.w3.org/1999/xlink">
	<desc>
			Created with Pixso.
	</desc>
	<defs/>
	<rect id="vk" width="20.000000" height="20.000000" fill="#FFFFFF" fill-opacity="0"/>
	<path id="path" d="M13.99 13.19C12.82 12.13 12.32 12 12.03 12C11.63 12 11.52 12.1 11.52 12.63L11.52 14.28C11.52 14.73 11.36 15 10.11 15C8.02 15 5.73 13.81 4.1 11.62C1.66 8.42 1 6 1 5.52C1 5.24 1.11 5 1.67 5L3.64 5C4.14 5 4.33 5.2 4.52 5.71C5.48 8.34 7.11 10.63 7.78 10.63C8.03 10.63 8.14 10.52 8.14 9.93L8.14 7.21C8.07 5.97 7.36 5.86 7.36 5.42C7.36 5.21 7.55 5 7.86 5L10.95 5C11.37 5 11.52 5.2 11.52 5.67L11.52 9.32C11.52 9.71 11.7 9.85 11.82 9.85C12.07 9.85 12.28 9.71 12.74 9.28C14.16 7.8 15.16 5.52 15.16 5.52C15.29 5.24 15.51 5 16.02 5L17.99 5C18.58 5 18.71 5.28 18.58 5.67C18.33 6.75 15.93 9.91 15.93 9.91C15.72 10.22 15.64 10.37 15.93 10.73C16.14 11 16.83 11.55 17.29 12.05C18.13 12.94 18.77 13.69 18.95 14.21C19.11 14.73 18.83 15 18.27 15L16.3 15C15.55 15 15.33 14.44 13.99 13.19Z" fill="#FFFFFF" fill-opacity="1.000000" fill-rule="evenodd"/>
</svg>
